<svg width="95" height="95" viewBox="0 0 95 95" fill="none" xmlns="http://www.w3.org/2000/svg">
<circle cx="47.5" cy="47.5" r="47.5" fill="#006F9A"/>
<path d="M13.6049 45.0721C11.4136 39.8033 15.2852 34 20.9916 34H74.0084C79.7148 34 83.5864 39.8033 81.3951 45.0721L70.1657 72.0721C68.9247 75.0558 66.0105 77 62.779 77H32.221C28.9895 77 26.0753 75.0559 24.8343 72.0721L13.6049 45.0721Z" fill="white"/>
<path d="M67 36C67 33.5049 66.5085 31.0342 65.5537 28.729C64.5989 26.4238 63.1993 24.3293 61.435 22.565C59.6707 20.8007 57.5762 19.4011 55.271 18.4463C52.9658 17.4914 50.4951 17 48 17C45.5049 17 43.0342 17.4914 40.729 18.4463C38.4238 19.4011 36.3293 20.8007 34.565 22.565C32.8007 24.3293 31.4011 26.4238 30.4463 28.729C29.4914 31.0342 29 33.5049 29 36H34.1695C34.1695 34.1838 34.5272 32.3853 35.2223 30.7073C35.9173 29.0293 36.9361 27.5046 38.2203 26.2203C39.5046 24.9361 41.0293 23.9173 42.7073 23.2223C44.3853 22.5272 46.1837 22.1695 48 22.1695C49.8163 22.1695 51.6147 22.5272 53.2927 23.2223C54.9707 23.9173 56.4954 24.9361 57.7797 26.2203C59.0639 27.5046 60.0827 29.0293 60.7777 30.7073C61.4728 32.3853 61.8305 34.1837 61.8305 36H67Z" fill="white"/>
</svg>
